<svg width="624" height="543" viewBox="0 0 624 543" fill="none" xmlns="http://www.w3.org/2000/svg">
<path d="M418.008 94.9502C441.401 115.025 444.479 157.889 471.567 190.443C498.038 223.54 548.52 247.413 565.141 279.967C582.379 311.979 565.141 353.215 538.054 385.227C510.351 417.238 472.182 440.569 432.167 440.026C391.536 440.026 349.673 416.153 310.889 411.27C272.105 406.387 236.399 420.494 202.54 417.781C168.681 414.526 136.668 394.45 123.74 367.322C110.812 340.193 116.353 305.468 106.503 266.403C97.2683 226.795 71.4122 182.304 86.1871 157.889C100.962 132.93 155.752 128.047 199.462 118.281C243.171 108.515 275.183 93.865 313.352 85.7265C350.905 77.0453 394.614 74.875 418.008 94.9502Z" fill="white"/>
<g clip-path="url(#clip0_5_600)">
<path d="M155.956 385.492L164.618 385.492L168.739 356.043L155.954 356.043L155.956 385.492Z" fill="#FFB6B6"/>
<path d="M155.65 393.456L182.289 393.456V393.159C182.289 390.735 181.197 388.411 179.252 386.697C177.308 384.984 174.671 384.021 171.921 384.021H171.92L167.054 380.767L157.975 384.021L155.65 384.021L155.65 393.456Z" fill="#2F2E41"/>
<path d="M169.944 349.863L176.764 354.57L200.614 333.628L190.548 326.679L169.944 349.863Z" fill="#FFB6B6"/>
<path d="M164.131 355.967L185.102 370.444L185.31 370.21C187.006 368.302 187.772 365.879 187.44 363.473C187.109 361.067 185.706 358.876 183.542 357.381L183.541 357.381L181.987 352.175L172.563 349.802L170.733 348.539L164.131 355.967Z" fill="#2F2E41"/>
<path d="M210.728 215.684C210.728 215.684 222.225 226.192 217.116 250.586L221.405 292.354L222.513 294.288C223.172 295.44 223.403 296.746 223.171 298.02C222.939 299.295 222.257 300.472 221.221 301.385L220.309 303.877L219.458 308.756L187.734 350.789L175.598 339.53L195.186 300.124L189.863 289.991L177.514 254.714L168.998 319.264L170.701 374.807H154.401L144.301 312.884L133.655 225.817L139.192 215.684H210.728Z" fill="#2F2E41"/>
<path d="M136.31 233.739L136.194 233.596C129.989 225.94 139.321 207.544 140.728 204.878C139.057 204.4 137.625 203.426 136.677 202.122C135.729 200.818 135.323 199.265 135.529 197.727L136.135 193.182L136.768 188.724L132.237 184.731L132.224 184.631L129.617 164.525L125.826 151.17C124.398 146.122 124.52 140.829 126.179 135.836C127.838 130.842 130.975 126.328 135.268 122.756L144.031 121.53L154.68 112.487H171.853L177.742 117.445C188.734 119.144 190.622 118.589 200.064 128.575L195.774 159.622L194.704 163.893L194.707 169.686L197.428 172.352C198.408 173.312 199.12 174.46 199.508 175.706C199.895 176.951 199.947 178.259 199.66 179.526L199.302 181.103C202.109 182.162 204.787 201 205.426 203.631L206.382 207.562C207.2 208.512 212.597 214.855 212.597 216.588C212.597 216.849 212.379 217.1 211.911 217.379C208.233 219.574 193.57 235.145 184.572 231.972C174.989 228.595 136.892 233.661 136.508 233.713L136.31 233.739Z" fill="#3F3D56"/>
<path d="M134.003 197.637C134.003 197.637 138.413 175.671 133.97 167.41L116.345 168.519L119.027 199.857L134.435 234.651C134.199 235.723 134.29 236.831 134.698 237.862C135.106 238.893 135.816 239.811 136.756 240.522C137.696 241.233 138.833 241.712 140.051 241.911C141.269 242.109 142.525 242.02 143.692 241.653C144.858 241.285 145.894 240.652 146.693 239.818C147.492 238.984 148.027 237.978 148.242 236.903C148.458 235.827 148.347 234.721 147.92 233.696C147.494 232.671 146.767 231.763 145.814 231.066L134.003 197.637Z" fill="#FFB6B6"/>
<path d="M116.345 155.76L117.435 145.29C117.846 141.35 119.136 137.52 121.233 134.021C123.329 130.522 126.189 127.423 129.649 124.901C131.799 123.346 134.399 122.352 137.157 122.031C139.914 121.711 142.718 122.076 145.252 123.086C148.677 124.475 151.375 126.959 152.801 130.035C154.227 133.111 154.275 136.549 152.934 139.655C148.861 149.071 150.332 159.029 142.389 160.243L143.252 163.861L135.442 186.324L113.197 184.053L116.345 155.76Z" fill="#3F3D56"/>
<path d="M233.664 187.226C233.664 187.226 220.753 168.039 211.273 164.329L198.732 175.301L223.953 197.516L261.379 215.038C261.994 215.986 262.882 216.774 263.954 217.321C265.026 217.869 266.243 218.156 267.482 218.155C268.721 218.154 269.937 217.864 271.008 217.314C272.078 216.764 272.965 215.975 273.577 215.026C274.19 214.077 274.506 213.002 274.495 211.91C274.483 210.818 274.144 209.748 273.512 208.809C272.88 207.87 271.977 207.095 270.895 206.563C269.814 206.031 268.591 205.761 267.353 205.78L233.664 187.226Z" fill="#FFB6B6"/>
<path d="M189.29 165.627L182.371 157.063C179.767 153.84 177.911 150.195 176.911 146.338C175.911 142.48 175.786 138.487 176.543 134.586C177.023 132.172 178.259 129.924 180.112 128.096C181.965 126.268 184.361 124.933 187.029 124.243C190.654 123.328 194.537 123.66 197.894 125.172C201.251 126.684 203.831 129.263 205.113 132.388C208.992 141.868 223.14 157.448 218.017 162.933L221.349 165.181L226.384 177.823L207.84 188.886L189.29 165.627Z" fill="#3F3D56"/>
<path d="M162.108 108.118C172.641 108.118 181.18 100.593 181.18 91.3093C181.18 82.0259 172.641 74.5002 162.108 74.5002C151.575 74.5002 143.036 82.0259 143.036 91.3093C143.036 100.593 151.575 108.118 162.108 108.118Z" fill="#FFB6B6"/>
<path d="M148.266 103.156C148.1 103.028 147.943 102.891 147.781 102.759C147.775 102.772 147.774 102.786 147.768 102.8L148.266 103.156Z" fill="#2F2E41"/>
<path d="M177.738 73.5588C176.79 72.2143 175.477 71.099 173.918 70.3135C172.853 69.858 171.733 69.5083 170.58 69.2709L167.562 68.5451C166.015 68.1234 164.424 67.841 162.813 67.7024C160.575 67.6051 158.351 68.0516 156.382 68.9931C154.413 69.9345 152.775 71.3348 151.648 73.0408C150.736 74.4664 150.004 76.2428 148.244 76.7643C146.825 77.1849 145.277 76.5917 143.785 76.7067C142.911 76.8184 142.082 77.1183 141.371 77.5799C140.66 78.0414 140.089 78.6505 139.709 79.353C138.966 80.7668 138.6 82.3118 138.64 83.8696C138.581 87.4063 139.364 90.9145 140.939 94.168C142.513 97.4214 144.844 100.348 147.781 102.759C148.273 101.615 147.462 100.38 146.821 99.2865C146.173 98.1796 145.772 96.6365 146.858 95.8392C148.067 94.9522 150.003 95.8124 151.432 95.2339C151.89 95.0024 152.275 94.6747 152.553 94.2801C152.832 93.8854 152.995 93.4361 153.029 92.9723C153.167 92.0532 153.023 91.1189 153.088 90.1935C153.153 89.2762 153.423 88.3794 153.884 87.5547C154.344 86.73 154.985 85.9939 155.77 85.3889C156.555 84.7838 157.468 84.3218 158.457 84.0295C159.446 83.7372 160.49 83.6204 161.53 83.6859C164.784 83.8908 167.941 85.8501 171.072 85.044C172.542 84.6657 173.795 83.7023 175.315 83.5403C176.998 83.3608 178.582 84.1981 180.011 85.002C180.531 83.0583 180.597 81.0419 180.206 79.0749C179.815 77.1079 178.975 75.2313 177.738 73.5588Z" fill="#2F2E41"/>
<path d="M265.258 199.885V359.12C265.259 361.149 266.175 363.095 267.803 364.529C269.431 365.964 271.639 366.771 273.941 366.773H541.68C543.983 366.771 546.19 365.964 547.818 364.529C549.446 363.095 550.362 361.149 550.363 359.12V199.885C550.358 197.858 549.441 195.915 547.814 194.482C546.186 193.049 543.98 192.243 541.68 192.241H273.941C271.641 192.243 269.435 193.049 267.808 194.482C266.18 195.915 265.263 197.858 265.258 199.885Z" fill="#3F3D56"/>
<path d="M271.539 201.866V357.155C271.541 358.24 272.03 359.279 272.9 360.046C273.77 360.812 274.949 361.244 276.179 361.246H539.451C540.681 361.244 541.861 360.812 542.731 360.046C543.6 359.279 544.09 358.24 544.092 357.155V201.866C544.092 200.781 543.603 199.74 542.733 198.971C541.863 198.203 540.683 197.77 539.451 197.768H276.179C274.948 197.77 273.767 198.203 272.897 198.971C272.027 199.74 271.539 200.781 271.539 201.866Z" fill="#DDDDDD"/>
<path d="M259.658 390.175C260.149 390.717 260.772 391.154 261.482 391.453C262.191 391.752 262.969 391.906 263.755 391.902H550.441C551.225 391.902 551.999 391.747 552.706 391.449C553.414 391.151 554.037 390.719 554.531 390.182C555.025 389.645 555.377 389.018 555.561 388.347C555.746 387.675 555.758 386.976 555.597 386.299L551.147 367.669C550.962 366.909 550.565 366.202 549.992 365.613C549.418 365.023 548.686 364.569 547.862 364.292C547.266 364.086 546.631 363.98 545.99 363.98H268.188C267.547 363.98 266.912 364.086 266.316 364.292C265.492 364.569 264.76 365.023 264.186 365.613C263.613 366.202 263.216 366.909 263.031 367.669L258.581 386.299C258.423 386.975 258.437 387.674 258.623 388.344C258.81 389.015 259.163 389.64 259.658 390.175Z" fill="#2F2E41"/>
<path d="M535.432 372.005H543.647C543.817 372.005 543.954 371.884 543.954 371.734V367.606C543.954 367.457 543.817 367.336 543.647 367.336H535.432C535.262 367.336 535.124 367.457 535.124 367.606V371.734C535.124 371.884 535.262 372.005 535.432 372.005Z" fill="#3F3D56"/>
<path d="M517.772 372.005H525.987C526.157 372.005 526.295 371.884 526.295 371.734V367.606C526.295 367.457 526.157 367.336 525.987 367.336H517.772C517.603 367.336 517.465 367.457 517.465 367.606V371.734C517.465 371.884 517.603 372.005 517.772 372.005Z" fill="#3F3D56"/>
<path d="M500.113 372.005H508.328C508.498 372.005 508.635 371.884 508.635 371.734V367.606C508.635 367.457 508.498 367.336 508.328 367.336H500.113C499.943 367.336 499.805 367.457 499.805 367.606V371.734C499.805 371.884 499.943 372.005 500.113 372.005Z" fill="#3F3D56"/>
<path d="M482.453 372.005H490.668C490.838 372.005 490.976 371.884 490.976 371.734V367.606C490.976 367.457 490.838 367.336 490.668 367.336H482.453C482.283 367.336 482.146 367.457 482.146 367.606V371.734C482.146 371.884 482.283 372.005 482.453 372.005Z" fill="#3F3D56"/>
<path d="M464.793 372.005H473.009C473.178 372.005 473.316 371.884 473.316 371.734V367.606C473.316 367.457 473.178 367.336 473.009 367.336H464.793C464.624 367.336 464.486 367.457 464.486 367.606V371.734C464.486 371.884 464.624 372.005 464.793 372.005Z" fill="#3F3D56"/>
<path d="M447.134 372.005H455.349C455.519 372.005 455.656 371.884 455.656 371.734V367.606C455.656 367.457 455.519 367.336 455.349 367.336H447.134C446.964 367.336 446.827 367.457 446.827 367.606V371.734C446.827 371.884 446.964 372.005 447.134 372.005Z" fill="#3F3D56"/>
<path d="M429.474 372.005H437.69C437.859 372.005 437.997 371.884 437.997 371.734V367.606C437.997 367.457 437.859 367.336 437.69 367.336H429.474C429.305 367.336 429.167 367.457 429.167 367.606V371.734C429.167 371.884 429.305 372.005 429.474 372.005Z" fill="#3F3D56"/>
<path d="M411.815 372.005H420.03C420.2 372.005 420.337 371.884 420.337 371.734V367.606C420.337 367.457 420.2 367.336 420.03 367.336H411.815C411.645 367.336 411.507 367.457 411.507 367.606V371.734C411.507 371.884 411.645 372.005 411.815 372.005Z" fill="#3F3D56"/>
<path d="M394.155 372.005H402.37C402.54 372.005 402.678 371.884 402.678 371.734V367.606C402.678 367.457 402.54 367.336 402.37 367.336H394.155C393.985 367.336 393.848 367.457 393.848 367.606V371.734C393.848 371.884 393.985 372.005 394.155 372.005Z" fill="#3F3D56"/>
<path d="M376.496 372.005H384.711C384.881 372.005 385.018 371.884 385.018 371.734V367.606C385.018 367.457 384.881 367.336 384.711 367.336H376.496C376.326 367.336 376.188 367.457 376.188 367.606V371.734C376.188 371.884 376.326 372.005 376.496 372.005Z" fill="#3F3D56"/>
<path d="M358.836 372.005H367.051C367.221 372.005 367.359 371.884 367.359 371.734V367.606C367.359 367.457 367.221 367.336 367.051 367.336H358.836C358.666 367.336 358.529 367.457 358.529 367.606V371.734C358.529 371.884 358.666 372.005 358.836 372.005Z" fill="#3F3D56"/>
<path d="M341.177 372.005H349.392C349.561 372.005 349.699 371.884 349.699 371.734V367.606C349.699 367.457 349.561 367.336 349.392 367.336H341.177C341.007 367.336 340.869 367.457 340.869 367.606V371.734C340.869 371.884 341.007 372.005 341.177 372.005Z" fill="#3F3D56"/>
<path d="M323.517 372.005H331.732C331.902 372.005 332.039 371.884 332.039 371.734V367.606C332.039 367.457 331.902 367.336 331.732 367.336H323.517C323.347 367.336 323.21 367.457 323.21 367.606V371.734C323.21 371.884 323.347 372.005 323.517 372.005Z" fill="#3F3D56"/>
<path d="M305.857 372.005H314.073C314.242 372.005 314.38 371.884 314.38 371.734V367.606C314.38 367.457 314.242 367.336 314.073 367.336H305.857C305.688 367.336 305.55 367.457 305.55 367.606V371.734C305.55 371.884 305.688 372.005 305.857 372.005Z" fill="#3F3D56"/>
<path d="M288.198 372.005H296.413C296.583 372.005 296.72 371.884 296.72 371.734V367.606C296.72 367.457 296.583 367.336 296.413 367.336H288.198C288.028 367.336 287.89 367.457 287.89 367.606V371.734C287.89 371.884 288.028 372.005 288.198 372.005Z" fill="#3F3D56"/>
<path d="M270.538 372.005H278.753C278.923 372.005 279.061 371.884 279.061 371.734V367.606C279.061 367.457 278.923 367.336 278.753 367.336H270.538C270.368 367.336 270.231 367.457 270.231 367.606V371.734C270.231 371.884 270.368 372.005 270.538 372.005Z" fill="#3F3D56"/>
<path d="M535.64 379.787H543.856C544.025 379.787 544.163 379.666 544.163 379.516V375.389C544.163 375.239 544.025 375.118 543.856 375.118H535.64C535.471 375.118 535.333 375.239 535.333 375.389V379.516C535.333 379.666 535.471 379.787 535.64 379.787Z" fill="#3F3D56"/>
<path d="M517.981 379.787H526.196C526.366 379.787 526.503 379.666 526.503 379.516V375.389C526.503 375.239 526.366 375.118 526.196 375.118H517.981C517.811 375.118 517.674 375.239 517.674 375.389V379.516C517.674 379.666 517.811 379.787 517.981 379.787Z" fill="#3F3D56"/>
<path d="M500.321 379.787H508.537C508.706 379.787 508.844 379.666 508.844 379.516V375.389C508.844 375.239 508.706 375.118 508.537 375.118H500.321C500.152 375.118 500.014 375.239 500.014 375.389V379.516C500.014 379.666 500.152 379.787 500.321 379.787Z" fill="#3F3D56"/>
<path d="M482.662 379.787H490.877C491.047 379.787 491.184 379.666 491.184 379.516V375.389C491.184 375.239 491.047 375.118 490.877 375.118H482.662C482.492 375.118 482.355 375.239 482.355 375.389V379.516C482.355 379.666 482.492 379.787 482.662 379.787Z" fill="#3F3D56"/>
<path d="M465.002 379.787H473.217C473.387 379.787 473.525 379.666 473.525 379.516V375.389C473.525 375.239 473.387 375.118 473.217 375.118H465.002C464.832 375.118 464.695 375.239 464.695 375.389V379.516C464.695 379.666 464.832 379.787 465.002 379.787Z" fill="#3F3D56"/>
<path d="M447.343 379.787H455.558C455.728 379.787 455.865 379.666 455.865 379.516V375.389C455.865 375.239 455.728 375.118 455.558 375.118H447.343C447.173 375.118 447.035 375.239 447.035 375.389V379.516C447.035 379.666 447.173 379.787 447.343 379.787Z" fill="#3F3D56"/>
<path d="M429.683 379.787H437.898C438.068 379.787 438.205 379.666 438.205 379.516V375.389C438.205 375.239 438.068 375.118 437.898 375.118H429.683C429.513 375.118 429.376 375.239 429.376 375.389V379.516C429.376 379.666 429.513 379.787 429.683 379.787Z" fill="#3F3D56"/>
<path d="M412.023 379.787H420.239C420.408 379.787 420.546 379.666 420.546 379.516V375.389C420.546 375.239 420.408 375.118 420.239 375.118H412.023C411.854 375.118 411.716 375.239 411.716 375.389V379.516C411.716 379.666 411.854 379.787 412.023 379.787Z" fill="#3F3D56"/>
<path d="M394.364 379.787H402.579C402.749 379.787 402.886 379.666 402.886 379.516V375.389C402.886 375.239 402.749 375.118 402.579 375.118H394.364C394.194 375.118 394.057 375.239 394.057 375.389V379.516C394.057 379.666 394.194 379.787 394.364 379.787Z" fill="#3F3D56"/>
<path d="M376.704 379.787H384.919C385.089 379.787 385.227 379.666 385.227 379.516V375.389C385.227 375.239 385.089 375.118 384.919 375.118H376.704C376.535 375.118 376.397 375.239 376.397 375.389V379.516C376.397 379.666 376.535 379.787 376.704 379.787Z" fill="#3F3D56"/>
<path d="M359.045 379.787H367.26C367.43 379.787 367.567 379.666 367.567 379.516V375.389C367.567 375.239 367.43 375.118 367.26 375.118H359.045C358.875 375.118 358.737 375.239 358.737 375.389V379.516C358.737 379.666 358.875 379.787 359.045 379.787Z" fill="#3F3D56"/>
<path d="M341.385 379.787H349.6C349.77 379.787 349.908 379.666 349.908 379.516V375.389C349.908 375.239 349.77 375.118 349.6 375.118H341.385C341.215 375.118 341.078 375.239 341.078 375.389V379.516C341.078 379.666 341.215 379.787 341.385 379.787Z" fill="#3F3D56"/>
<path d="M323.726 379.787H331.941C332.11 379.787 332.248 379.666 332.248 379.516V375.389C332.248 375.239 332.11 375.118 331.941 375.118H323.726C323.556 375.118 323.418 375.239 323.418 375.389V379.516C323.418 379.666 323.556 379.787 323.726 379.787Z" fill="#3F3D56"/>
<path d="M306.066 379.787H314.281C314.451 379.787 314.589 379.666 314.589 379.516V375.389C314.589 375.239 314.451 375.118 314.281 375.118H306.066C305.896 375.118 305.759 375.239 305.759 375.389V379.516C305.759 379.666 305.896 379.787 306.066 379.787Z" fill="#3F3D56"/>
<path d="M288.406 379.787H296.622C296.791 379.787 296.929 379.666 296.929 379.516V375.389C296.929 375.239 296.791 375.118 296.622 375.118H288.406C288.237 375.118 288.099 375.239 288.099 375.389V379.516C288.099 379.666 288.237 379.787 288.406 379.787Z" fill="#3F3D56"/>
<path d="M270.747 379.787H278.962C279.132 379.787 279.269 379.666 279.269 379.516V375.389C279.269 375.239 279.132 375.118 278.962 375.118H270.747C270.577 375.118 270.44 375.239 270.44 375.389V379.516C270.44 379.666 270.577 379.787 270.747 379.787Z" fill="#3F3D56"/>
<path d="M369.552 389.125H439.576C439.746 389.125 439.883 389.004 439.883 388.855V384.727C439.883 384.577 439.746 384.456 439.576 384.456H369.552C369.383 384.456 369.245 384.577 369.245 384.727V388.855C369.245 389.004 369.383 389.125 369.552 389.125Z" fill="#3F3D56"/>
<path d="M467.791 291.836C467.762 304.945 462.17 317.57 452.114 327.229C442.059 336.888 428.267 342.883 413.451 344.035C398.634 345.186 383.865 341.412 372.046 333.453C360.228 325.493 352.215 313.926 349.583 301.024C346.951 288.122 349.89 274.818 357.823 263.729C365.755 252.64 378.108 244.568 392.452 241.099C406.795 237.63 422.092 239.015 435.336 244.982C448.579 250.95 458.811 261.068 464.019 273.347C464.149 273.655 464.276 273.963 464.399 274.275V274.277C464.949 275.646 465.433 277.04 465.852 278.459C467.144 282.827 467.795 287.322 467.791 291.836Z" fill="#3F3D56"/>
<path d="M401.254 256.172C398.558 254.887 395.566 254.162 392.504 254.052C389.442 253.942 386.393 254.449 383.587 255.535C381.117 256.482 378.516 258.182 377.692 261.251C381.025 259.518 385.339 262.256 386.197 266.65L385.996 266.699C385.543 269.742 386.555 273.055 388.512 274.942C388.658 274.091 389.017 273.278 389.563 272.564C390.109 271.851 390.829 271.253 391.67 270.815C393.108 269.981 394.699 269.376 395.797 267.944C397.098 266.246 397.429 263.764 397.946 261.5C398.463 259.236 399.444 256.803 401.254 256.172Z" fill="#FFBE00"/>
<path d="M382.599 282.068C381.676 283.29 380.443 284.056 379.337 285.011C378.06 286.035 377.222 287.415 376.964 288.919C376.824 289.983 377.041 291.063 377.011 292.138C376.981 293.213 376.575 294.423 375.745 294.69C374.435 295.107 373.436 292.963 372.09 292.813C371.02 292.696 370.057 294.179 370.367 295.465C370.677 296.751 372.133 297.321 372.969 296.481C373.726 297.6 373.193 299.629 372.056 299.973C371.936 300.678 371.816 301.38 371.7 302.084C368.828 300.314 365.925 298.513 363.483 295.92C360.767 293.061 359.082 289.551 358.645 285.842C358.329 282.861 358.798 279.452 357.246 277.158C356.003 275.323 353.87 274.918 351.951 275.032C351.601 275.053 351.248 275.088 350.898 275.126C352.03 272.13 353.468 269.231 355.193 266.463C355.584 266.315 355.946 266.116 356.269 265.873C358.055 264.537 358.848 261.832 360.298 259.961C360.391 259.841 360.488 259.724 360.588 259.609C362.07 257.903 364.056 257.025 365.975 256.208C370.224 254.391 374.595 252.549 379.08 252.802L377.804 252.911C376.315 256.587 374.824 260.264 373.333 263.941C373.106 264.504 372.877 265.069 372.646 265.635C371.8 267.726 370.927 269.952 371.057 272.292C371.133 273.678 371.68 275.158 372.719 275.634C373.689 276.075 374.749 275.534 375.685 275C376.081 274.777 376.475 274.553 376.871 274.327C378.294 273.52 379.87 272.692 381.373 273.232C382.749 273.725 383.765 275.373 383.958 277.15C384.135 278.877 383.657 280.607 382.599 282.068Z" fill="#FFBE00"/>
<path d="M391.061 307.17C386.905 304.915 382.75 302.66 378.595 300.405L378.665 300.245C376.082 301.112 375.009 305.16 375.436 308.47C375.863 311.78 377.311 314.739 378.042 317.964C379.028 322.378 378.656 326.943 376.964 331.187C382.428 325.784 387.264 319.911 391.398 313.658C391.976 312.869 392.416 312.009 392.704 311.106C393.009 310.143 392.9 309.115 392.399 308.219C392.059 307.777 391.599 307.416 391.061 307.17Z" fill="#FFBE00"/>
<path d="M374.661 266.146C374.173 267.07 374.098 268.121 374.45 269.091C374.86 269.873 375.604 270.48 376.52 270.781L378.816 271.784C379.58 272.117 380.403 272.454 381.182 272.18C382.121 271.849 382.772 270.551 382.604 269.346C382.424 268.064 381.507 267.182 380.659 266.432C379.473 265.381 378.286 264.33 377.099 263.279L376.431 264.001C375.707 264.623 375.109 265.348 374.661 266.146Z" fill="#FFBE00"/>
<path d="M455.483 279.851C456.516 280.066 457.549 280.28 458.582 280.494C458.402 283.569 456.672 286.415 454.353 287.445C453.387 287.874 452.311 288.033 451.511 288.834C450.788 289.563 450.422 290.696 450.085 291.78C449.495 293.671 448.906 295.562 448.316 297.453C447.683 299.491 446.87 301.755 445.224 302.49C443.811 303.121 442.195 302.349 441.109 301.054C440.022 299.759 439.359 298.017 438.716 296.32C438.756 298.17 437.78 299.985 436.397 300.628C435.011 301.271 433.325 300.689 432.399 299.253C431.732 298.223 431.456 296.863 430.803 295.818C430.15 294.772 428.78 294.173 428.067 295.154C427.597 295.806 427.657 296.804 427.424 297.632C427.307 298.182 426.998 298.686 426.54 299.074C426.083 299.462 425.5 299.715 424.872 299.797C424.295 299.785 423.726 299.67 423.201 299.458C422.675 299.247 422.204 298.943 421.816 298.566C419.776 296.727 418.448 294.366 418.021 291.821C417.732 290.601 417.769 289.338 418.128 288.132C418.538 286.99 419.527 286.109 420.51 286.326C421.157 285.122 419.881 283.525 418.731 283.666C417.578 283.807 416.675 284.896 415.729 285.733C414.786 286.57 413.466 287.178 412.517 286.347C412.528 286.505 412.502 286.664 412.44 286.812C412.378 286.961 412.282 287.097 412.158 287.211C412.034 287.326 411.884 287.416 411.718 287.477C411.552 287.538 411.374 287.568 411.194 287.566C410.563 287.406 409.976 287.132 409.471 286.761C407.296 285.566 404.533 286.359 402.987 288.62C403.954 284.996 405.37 280.838 408.338 279.986C409.551 279.637 410.874 279.925 412.02 279.32C414.05 278.248 414.459 274.198 412.707 272.527C412.93 274.107 412.887 275.951 411.94 277.032C410.994 278.113 409.008 277.408 409.128 275.81C409.101 276.035 408.994 276.247 408.823 276.414C408.651 276.582 408.424 276.698 408.173 276.745C407.922 276.792 407.661 276.768 407.427 276.676C407.192 276.584 406.997 276.429 406.869 276.233C406.239 275.388 406.293 274.004 406.739 272.994C407.199 272.079 407.859 271.253 408.682 270.563C410.264 269.068 411.87 267.556 413.703 266.616C415.539 265.676 417.658 265.359 419.497 266.293C420.467 266.786 421.32 267.608 422.31 268.043C422.547 268.173 422.811 268.259 423.087 268.297C423.362 268.335 423.644 268.324 423.914 268.264C424.185 268.204 424.439 268.097 424.662 267.949C424.885 267.802 425.072 267.616 425.212 267.403C425.948 266.263 425.602 264.572 425.875 263.148C426.365 260.631 429.22 259.453 430.803 261.116C429.62 260.848 428.397 262.082 428.251 263.576C428.101 265.071 428.957 266.581 430.103 267.033C432.029 267.785 433.915 265.893 435.371 264.143C436.89 262.311 438.412 260.479 439.936 258.649C440.179 258.337 440.452 258.044 440.752 257.774C441.229 257.364 441.866 257.129 442.532 257.117C443.198 257.105 443.845 257.317 444.341 257.709C445.88 258.816 446.603 261.086 447.866 262.648C449.699 264.919 452.441 265.471 454.993 265.911C456.896 266.237 458.799 266.565 460.704 266.895C461.974 268.977 463.082 271.132 464.02 273.347C460.527 274.75 457.564 277.008 455.483 279.851Z" fill="#FFBE00"/>
<path d="M465.852 278.459C465.462 279.473 465.248 280.534 465.219 281.604C463.586 279.848 463.326 276.556 464.399 274.277C464.949 275.646 465.433 277.04 465.852 278.459Z" fill="#FFBE00"/>
<path d="M461.634 315.185C460.206 317.739 458.546 320.188 456.669 322.506C455.47 322.053 454.18 322.861 453.057 323.619C451.884 324.411 450.475 325.184 449.272 324.461C448.043 323.721 447.646 321.651 448.036 320.009C448.484 318.495 449.268 317.074 450.342 315.828C451.341 314.512 452.411 313.147 453.8 312.636C455.193 312.125 456.982 312.847 457.389 314.591L458.375 314.562C457.822 313.892 458.112 312.506 458.855 312.263C459.711 311.978 460.454 313.014 460.961 313.931C461.187 314.345 461.417 314.762 461.634 315.185Z" fill="#FFBE00"/>
<path d="M423.86 302.781C421.74 302.898 420.061 300.598 418.945 298.335C417.83 296.073 416.811 293.485 414.899 292.333C413.806 291.675 412.56 291.585 411.374 291.266C410.702 291.116 410.079 290.827 409.559 290.424C409.038 290.02 408.635 289.512 408.381 288.943L407.036 288.465C405.155 289.293 403.432 290.376 401.93 291.673C400.214 293.28 399.145 295.34 398.888 297.535C398.631 299.907 399.58 302.553 401.352 303.444C402.753 304.148 404.383 303.704 405.802 304.349C407.575 305.154 408.627 307.494 409.025 309.804C409.424 312.114 409.323 314.515 409.608 316.851C409.893 319.187 410.678 321.618 412.303 322.816C414.337 324.314 417.322 323.069 418.235 320.341C418.682 319.004 418.667 317.494 419.002 316.105C419.591 313.66 421.182 311.846 422.444 309.839C423.706 307.833 424.7 305.109 423.86 302.781Z" fill="#FFBE00"/>
<path d="M402.912 278.75C403.11 278.91 403.294 279.083 403.464 279.266C403.64 279.533 403.73 279.838 403.724 280.147C403.718 280.455 403.617 280.757 403.43 281.019C403.686 281.006 403.935 280.946 404.163 280.844C404.391 280.742 404.593 280.6 404.755 280.425C405.142 280.037 405.482 279.614 405.771 279.164C405.906 279.01 406.003 278.832 406.055 278.643C406.107 278.453 406.112 278.256 406.07 278.064C405.97 277.813 405.733 277.705 405.567 277.516C405.337 277.145 405.18 276.743 405.103 276.326C405.011 275.936 404.797 275.575 404.485 275.286C404.174 274.997 403.777 274.79 403.339 274.688L403.445 274.706C403.264 274.801 403.122 274.943 403.037 275.112C402.952 275.282 402.93 275.471 402.973 275.652C403.038 276.019 403.305 276.323 403.278 276.697C403.24 277.234 402.63 277.486 402.593 278.024C402.587 278.293 402.702 278.554 402.912 278.75Z" fill="#FFBE00"/>
<path d="M399.28 269.617L399.29 269.615C399.355 269.563 399.416 269.506 399.471 269.445L399.28 269.617Z" fill="#FFBE00"/>
<path d="M399.916 272.139C400.171 271.942 400.359 271.688 400.46 271.403C400.562 271.118 400.573 270.814 400.491 270.524C400.337 269.913 399.792 269.502 399.29 269.615C399.144 269.745 398.963 269.841 398.764 269.893C398.564 269.944 398.353 269.951 398.151 269.911C397.84 269.84 397.499 269.659 397.229 269.865C397.075 270.019 396.967 270.205 396.915 270.405C396.815 270.675 396.716 270.945 396.616 271.215C396.568 271.312 396.556 271.419 396.58 271.522C396.6 271.563 396.63 271.599 396.67 271.627C396.71 271.655 396.757 271.673 396.807 271.68C397.405 271.836 398.004 271.991 398.603 272.147C398.809 272.231 399.033 272.273 399.26 272.272C399.487 272.271 399.711 272.225 399.916 272.139Z" fill="#FFBE00"/>
<path d="M445.112 306.968C444.835 306.568 444.558 306.169 444.282 305.77C444.01 305.307 443.638 304.896 443.188 304.559C443.088 304.486 442.974 304.431 442.85 304.397C442.727 304.364 442.597 304.352 442.468 304.364C442.34 304.375 442.215 304.409 442.102 304.463C441.988 304.518 441.888 304.592 441.807 304.681L441.841 304.909C442.582 305.609 443.087 306.477 443.299 307.416C443.362 307.824 443.34 308.247 443.396 308.657C443.402 308.847 443.45 309.034 443.538 309.207C443.626 309.381 443.752 309.538 443.909 309.668C444.344 309.925 444.856 309.547 445.166 309.085C445.443 308.706 445.568 308.255 445.519 307.806C445.45 307.505 445.311 307.22 445.112 306.968Z" fill="#FFBE00"/>
<path d="M449.453 307.487C449.506 307.113 449.471 306.734 449.352 306.372C449.332 305.883 449.479 305.4 449.774 304.985C450.067 304.594 450.29 304.164 450.433 303.713C450.493 303.507 450.482 303.29 450.401 303.09C450.31 302.908 450.088 302.825 449.96 302.969L450.233 303.124C449.865 303.066 449.487 303.082 449.127 303.171C448.922 303.24 448.739 303.352 448.593 303.497C448.447 303.642 448.343 303.815 448.29 304.003C448.245 304.296 448.171 304.585 448.07 304.867C447.908 305.161 447.593 305.259 447.396 305.517C447.261 305.746 447.193 306.001 447.198 306.259C447.203 306.517 447.28 306.77 447.423 306.995C447.672 307.363 448.066 307.636 448.53 307.762C448.863 307.867 449.301 307.873 449.453 307.487Z" fill="#FFBE00"/>
<path d="M457.184 309.543C457.304 309.819 457.465 310.079 457.663 310.318C458.033 310.646 458.536 310.445 458.985 310.365C459.393 310.308 459.81 310.35 460.193 310.485C460.576 310.62 460.91 310.844 461.16 311.133C460.986 310.368 460.606 309.651 460.052 309.042C459.498 308.432 458.786 307.949 457.976 307.633C456.924 307.312 455.815 307.159 454.702 307.182L454.512 307.225C454.997 308.468 456.518 308.44 457.184 309.543Z" fill="#FFBE00"/>
<path d="M424.44 312.085L424.443 312.091L424.498 311.997L424.44 312.085Z" fill="#FFBE00"/>
<path d="M423.267 314.086C423.012 314.495 422.792 314.921 422.609 315.36C422.368 316.071 422.208 316.801 422.133 317.54C422.073 317.96 422.055 318.496 422.353 318.701C422.439 318.751 422.543 318.772 422.645 318.76C422.747 318.748 422.84 318.703 422.907 318.635C423.073 318.48 423.209 318.302 423.309 318.108C423.896 317.218 424.352 316.264 424.665 315.272C424.992 314.219 424.914 313.1 424.443 312.091C424.051 312.756 423.659 313.421 423.267 314.086Z" fill="#FFBE00"/>
<path d="M411.953 260.782C412.139 260.942 412.375 261.051 412.631 261.095C412.886 261.139 413.151 261.116 413.392 261.029C413.891 260.837 414.349 260.57 414.746 260.241C415.075 260.027 415.353 259.759 415.567 259.452C415.685 259.268 415.76 259.066 415.789 258.857C415.818 258.648 415.799 258.436 415.735 258.233C415.643 258.038 415.497 257.868 415.309 257.737C415.122 257.606 414.9 257.52 414.664 257.486C413.999 257.312 413.335 257.139 412.67 256.965L413.151 256.583C412.656 256.349 412.109 256.783 411.8 257.321C411.602 257.672 411.464 258.047 411.39 258.433C411.285 258.837 411.281 259.257 411.378 259.662C411.475 260.068 411.672 260.45 411.953 260.782Z" fill="#FFBE00"/>
<path d="M423.685 257.311C423.872 257.493 424.131 257.605 424.409 257.625C424.687 257.645 424.963 257.571 425.181 257.418C425.369 257.294 425.525 257.136 425.639 256.955C425.753 256.774 425.822 256.574 425.843 256.367C425.89 255.907 425.631 255.395 425.262 255.355L425.347 254.924C424.636 254.81 423.761 254.788 423.38 255.549C423.251 255.84 423.212 256.156 423.265 256.466C423.319 256.775 423.464 257.066 423.685 257.311Z" fill="#FFBE00"/>
<path d="M529.72 225.88H285.911C285.744 225.877 285.585 225.816 285.468 225.711C285.351 225.606 285.286 225.464 285.286 225.317C285.286 225.17 285.351 225.028 285.468 224.923C285.585 224.818 285.744 224.757 285.911 224.754H529.72C529.887 224.757 530.046 224.818 530.163 224.923C530.28 225.028 530.345 225.17 530.345 225.317C530.345 225.464 530.28 225.606 530.163 225.711C530.046 225.816 529.887 225.877 529.72 225.88Z" fill="#CACACA"/>
<path d="M299.983 217.994C303.781 217.994 306.86 215.22 306.86 211.798C306.86 208.376 303.781 205.602 299.983 205.602C296.185 205.602 293.106 208.376 293.106 211.798C293.106 215.22 296.185 217.994 299.983 217.994Z" fill="#3F3D56"/>
<path d="M323.74 217.994C327.539 217.994 330.618 215.22 330.618 211.798C330.618 208.376 327.539 205.602 323.74 205.602C319.942 205.602 316.863 208.376 316.863 211.798C316.863 215.22 319.942 217.994 323.74 217.994Z" fill="#3F3D56"/>
<path d="M347.498 217.994C351.296 217.994 354.375 215.22 354.375 211.798C354.375 208.376 351.296 205.602 347.498 205.602C343.7 205.602 340.621 208.376 340.621 211.798C340.621 215.22 343.7 217.994 347.498 217.994Z" fill="#3F3D56"/>
<path d="M515.483 207.138H498.607C498.272 207.144 497.954 207.265 497.72 207.475C497.485 207.686 497.354 207.969 497.354 208.264C497.354 208.559 497.485 208.842 497.72 209.052C497.954 209.263 498.272 209.384 498.607 209.39H515.483C515.817 209.384 516.136 209.263 516.37 209.052C516.604 208.842 516.736 208.559 516.736 208.264C516.736 207.969 516.604 207.686 516.37 207.475C516.136 207.265 515.817 207.144 515.483 207.138Z" fill="#3F3D56"/>
<path d="M515.483 211.365H498.607C498.272 211.371 497.954 211.492 497.72 211.703C497.485 211.913 497.354 212.196 497.354 212.491C497.354 212.786 497.485 213.069 497.72 213.28C497.954 213.49 498.272 213.612 498.607 213.617H515.483C515.817 213.612 516.136 213.49 516.37 213.28C516.604 213.069 516.736 212.786 516.736 212.491C516.736 212.196 516.604 211.913 516.37 211.703C516.136 211.492 515.817 211.371 515.483 211.365Z" fill="#3F3D56"/>
<path d="M515.483 215.587H498.607C498.272 215.593 497.954 215.714 497.72 215.925C497.485 216.135 497.354 216.418 497.354 216.713C497.354 217.008 497.485 217.291 497.72 217.502C497.954 217.712 498.272 217.833 498.607 217.839H515.483C515.817 217.833 516.136 217.712 516.37 217.502C516.604 217.291 516.736 217.008 516.736 216.713C516.736 216.418 516.604 216.135 516.37 215.925C516.136 215.714 515.817 215.593 515.483 215.587Z" fill="#3F3D56"/>
<g opacity="0.35">
<path opacity="0.35" d="M536.179 294.44C540.103 292.932 532.145 292.054 523.116 291.765C514.088 291.477 503.165 291.493 497.395 290.672C491.815 289.878 492.226 288.466 491.757 287.187C491.287 285.908 489.142 284.596 480.435 284.312C469.584 283.958 451.69 285.322 443.499 284.503C435.855 283.739 440.399 281.342 429.253 281.25C422.888 281.198 414.689 281.988 407.607 282.179C402.587 282.371 397.558 282.14 392.587 281.489C389.136 280.99 386.731 280.358 382.846 279.918C372.647 278.762 352.692 279.151 334.881 280.632C317.07 282.114 301.803 284.541 293.193 286.946C284.583 289.35 282.204 291.718 284.21 293.726C285.491 295.008 288.768 296.206 296.718 296.721C311.587 297.685 338.062 296.026 353.427 296.903C361.991 297.392 365.79 298.603 373.304 299.266C381.376 299.978 393.193 300.016 404.804 299.999C428.978 299.964 453.77 299.745 479.051 299.343C489.611 299.176 500.675 298.958 511.911 298.159C523.147 297.36 534.607 295.818 536.978 294.372" fill="white"/>
</g>
</g>
<defs>
<clipPath id="clip0_5_600">
<rect width="521.914" height="326.03" fill="white" transform="translate(101.974 67.6831)"/>
</clipPath>
</defs>
</svg>
