<svg width="903" height="903" viewBox="0 0 903 903" fill="none" xmlns="http://www.w3.org/2000/svg">
<path d="M515.613 334.11C541.8 355.782 575.211 358.491 607.719 374.745C640.227 390.999 670.929 421.701 696.213 465.948C720.594 510.195 738.654 568.89 729.624 625.779C719.691 681.765 683.571 736.848 633.003 780.192C582.435 824.439 516.516 856.947 465.045 832.566C413.574 809.088 376.551 727.818 351.267 669.123C325.983 610.428 314.244 574.308 271.803 541.8C230.265 509.292 159.831 480.396 133.644 436.149C107.457 392.805 126.42 333.207 156.219 280.833C186.018 228.459 228.459 182.406 279.027 175.182C330.498 168.861 390.999 200.466 430.731 236.586C470.463 271.803 489.426 312.438 515.613 334.11Z" fill="white"/>
<g clip-path="url(#clip0_7_807)">
<path d="M374.772 416.21C373.593 415.926 372.366 415.904 371.177 416.145C369.989 416.386 368.867 416.886 367.892 417.607C366.918 418.329 366.113 419.256 365.535 420.322C364.956 421.388 364.619 422.569 364.547 423.78L336.162 431.76L347.744 441.792L372.922 432.676C374.965 432.663 376.931 431.901 378.449 430.536C379.968 429.17 380.932 427.294 381.16 425.265C381.388 423.235 380.864 421.192 379.687 419.523C378.509 417.855 376.761 416.676 374.772 416.21L374.772 416.21Z" fill="#FFB7B7"/>
<path d="M301.833 657.922L310.107 657.921L314.043 626.006L301.832 626.007L301.833 657.922Z" fill="#FFB7B7"/>
<path d="M299.724 665.943L326.401 665.942V665.604C326.401 662.85 325.307 660.209 323.359 658.261C321.412 656.314 318.771 655.22 316.017 655.22H316.017L299.723 655.22L299.724 665.943Z" fill="#2F2E41"/>
<path d="M253.353 657.922L261.626 657.921L265.563 626.006L253.352 626.007L253.353 657.922Z" fill="#FFB7B7"/>
<path d="M251.243 665.943L277.921 665.942V665.604C277.92 662.85 276.826 660.209 274.879 658.261C272.932 656.314 270.291 655.22 267.537 655.22H267.536L251.243 655.22L251.243 665.943Z" fill="#2F2E41"/>
<path d="M308.593 474.741L320.781 559.167L317.744 648.118L299.443 649.576L293.72 569.803L279.153 525.323L270.588 588.73L270.236 648.118L251.338 649.576L244.747 524.719L249.595 470.419L308.593 474.741Z" fill="#2F2E41"/>
<path d="M273.344 361.705C262.696 361.705 254.064 353.073 254.064 342.423C254.064 331.774 262.696 323.141 273.344 323.141C283.992 323.141 292.624 331.774 292.624 342.423C292.624 353.073 283.992 361.705 273.344 361.705Z" fill="#FFB7B7"/>
<path d="M285.228 372.193L306.512 479.434C306.512 479.434 270.677 489.721 254.978 480.225C239.279 470.729 246.313 441.414 246.313 441.414L249.189 391.533L254.502 378.919L259.01 368.507L285.228 372.193Z" fill="#CBCBCB"/>
<path d="M291.458 448.316L284.105 370.112L289.985 374.405L310.545 381.083L311.952 436.142L326.334 508.545C326.334 508.545 316.054 528.606 303.314 495.417L291.458 448.316Z" fill="#2F2E41"/>
<path d="M300.65 389.317L310.545 381.083L332.783 429.395L357.598 423.959L358.771 438.617L322.816 452.847L298.315 418.733L300.65 389.317Z" fill="#2F2E41"/>
<path d="M262.158 431.198L259.387 367.551L249.189 375.449L230.976 380.526L233.647 431.198L229.804 509.825L248.898 515.874L254.258 466.259L262.158 431.198Z" fill="#2F2E41"/>
<path d="M260.932 482.433C260.719 481.239 260.246 480.106 259.547 479.115C258.849 478.123 257.941 477.297 256.888 476.694C255.836 476.091 254.664 475.726 253.455 475.625C252.246 475.525 251.03 475.69 249.892 476.11L231.18 453.322L226.648 467.96L245.113 487.356C245.945 489.221 247.433 490.716 249.293 491.557C251.154 492.399 253.259 492.528 255.209 491.922C257.159 491.315 258.818 490.014 259.873 488.265C260.928 486.516 261.305 484.441 260.932 482.433V482.433Z" fill="#FFB7B7"/>
<path d="M243.17 387.591L230.976 380.525L200.295 441.121L230.208 482.664L247.27 469.02L226.552 442.001L245.434 412.979L243.17 387.591Z" fill="#2F2E41"/>
<path d="M255.211 327.008L254.276 325.127L258.979 322.79C258.979 322.79 264.167 314.347 273.556 316.72C282.944 319.092 287.168 320.512 287.168 320.512L291.859 322.873L289.505 325.216L293.729 326.636L290.907 328.038L294.19 329.925L292.423 339.601C292.423 339.601 289.487 332.262 283.843 335.067C278.2 337.871 267.876 333.617 267.876 333.617L258.908 350.976C258.908 350.976 257.058 344.891 253.759 346.513C253.759 346.513 245.331 333.09 255.211 327.008Z" fill="#2F2E41"/>
<path d="M372.323 355.297H372.447L443.152 385.492L539.892 426.805C540.27 426.964 540.675 427.047 541.085 427.049C541.495 427.051 541.902 426.972 542.281 426.817L642.088 385.406L714.531 355.347L714.641 355.297H714.765C715.908 355.299 717.004 355.753 717.812 356.562C718.62 357.37 719.075 358.466 719.076 359.609V546.863C719.075 548.006 718.62 549.102 717.812 549.911C717.004 550.719 715.908 551.174 714.765 551.175H372.323C371.18 551.174 370.084 550.719 369.276 549.911C368.468 549.102 368.013 548.006 368.012 546.863V359.609C368.013 358.466 368.468 357.37 369.276 356.562C370.084 355.753 371.18 355.299 372.323 355.297Z" fill="white"/>
<path d="M372.016 356.529C372.142 356.529 372.264 356.491 372.367 356.419L542.701 237.781C543.219 237.422 543.835 237.23 544.466 237.231C545.096 237.232 545.712 237.426 546.229 237.787L715.335 356.418C715.469 356.511 715.634 356.548 715.795 356.52C715.956 356.491 716.099 356.4 716.192 356.267C716.286 356.133 716.323 355.968 716.295 355.807C716.267 355.646 716.176 355.503 716.042 355.409L546.936 236.779C546.212 236.273 545.351 236.001 544.468 236C543.585 235.999 542.722 236.267 541.997 236.771L371.663 355.408C371.556 355.483 371.475 355.59 371.433 355.714C371.39 355.838 371.389 355.973 371.428 356.098C371.467 356.223 371.546 356.332 371.651 356.41C371.757 356.487 371.885 356.529 372.016 356.529L372.016 356.529Z" fill="#3F3D56"/>
<path d="M705.672 360.735L544.299 241.124L381.7 369.245L535.984 460.716L619.747 441.622L705.672 360.735Z" fill="#E6E6E6"/>
<path d="M612.676 517.215H692.398C692.888 517.216 693.373 517.121 693.826 516.935C694.278 516.748 694.69 516.475 695.037 516.129C695.384 515.784 695.659 515.373 695.847 514.921C696.035 514.469 696.133 513.985 696.133 513.495C696.134 513.006 696.038 512.521 695.851 512.068C695.665 511.616 695.39 511.204 695.045 510.858C694.699 510.511 694.288 510.236 693.836 510.049C693.383 509.861 692.899 509.765 692.409 509.765H612.676C612.186 509.763 611.701 509.858 611.248 510.045C610.796 510.231 610.384 510.505 610.037 510.85C609.69 511.195 609.415 511.606 609.227 512.058C609.038 512.51 608.941 512.995 608.941 513.484C608.94 513.974 609.036 514.459 609.222 514.911C609.409 515.364 609.683 515.775 610.029 516.121C610.375 516.468 610.786 516.743 611.238 516.93C611.69 517.118 612.175 517.215 612.665 517.215H612.676Z" fill="#FFBE00"/>
<path d="M663.796 501.199H692.398C692.888 501.2 693.373 501.105 693.826 500.919C694.278 500.733 694.69 500.459 695.037 500.114C695.384 499.768 695.659 499.358 695.847 498.906C696.036 498.454 696.133 497.969 696.133 497.479C696.134 496.99 696.038 496.505 695.852 496.052C695.665 495.6 695.391 495.189 695.045 494.842C694.699 494.496 694.288 494.221 693.836 494.033C693.384 493.846 692.899 493.749 692.409 493.749H663.796C662.809 493.749 661.862 494.141 661.164 494.838C660.465 495.535 660.072 496.481 660.071 497.468C660.069 498.456 660.459 499.403 661.156 500.102C661.852 500.802 662.798 501.196 663.785 501.199H663.796Z" fill="#FFBE00"/>
<path d="M542.029 427.356C542.635 427.357 543.235 427.239 543.796 427.01L643.32 385.71V256.434C643.319 255.291 642.864 254.195 642.056 253.387C641.248 252.579 640.152 252.124 639.009 252.123H448.079C446.936 252.124 445.84 252.579 445.032 253.387C444.224 254.195 443.769 255.291 443.768 256.434V385.8L443.955 385.88L540.208 426.99C540.785 427.232 541.404 427.356 542.029 427.356Z" fill="#FFBE00"/>
<path d="M373.247 355.297H373.37L444.076 385.492L540.816 426.805C541.194 426.964 541.599 427.047 542.009 427.049C542.419 427.051 542.826 426.972 543.205 426.817L643.012 385.406L715.455 355.347L715.565 355.297H715.689C716.832 355.299 717.928 355.753 718.736 356.562C719.544 357.37 719.999 358.466 720 359.609V546.863C719.999 548.006 719.544 549.102 718.736 549.911C717.928 550.719 716.832 551.174 715.689 551.175H373.247C372.104 551.174 371.008 550.719 370.2 549.911C369.392 549.102 368.937 548.006 368.936 546.863V359.609C368.937 358.466 369.392 357.37 370.2 356.562C371.008 355.753 372.104 355.299 373.247 355.297ZM370.168 546.863C370.168 547.68 370.493 548.463 371.07 549.041C371.647 549.618 372.431 549.943 373.247 549.943H715.689C716.505 549.943 717.288 549.618 717.866 549.041C718.443 548.463 718.768 547.68 718.768 546.863V359.609C718.767 358.813 718.458 358.048 717.906 357.474C717.354 356.9 716.601 356.561 715.806 356.529L643.012 386.736L543.679 427.957C542.604 428.394 541.399 428.388 540.329 427.938L444.076 386.829L373.124 356.529C372.33 356.564 371.579 356.903 371.028 357.477C370.478 358.05 370.17 358.814 370.168 359.609L370.168 546.863Z" fill="#3F3D56"/>
<path d="M557.523 300.446H625.272C626.578 300.444 627.829 299.924 628.751 299C629.673 298.076 630.191 296.824 630.191 295.519C630.191 294.213 629.673 292.961 628.751 292.037C627.829 291.113 626.578 290.593 625.272 290.591H557.523C556.218 290.593 554.967 291.113 554.045 292.037C553.122 292.961 552.604 294.213 552.604 295.519C552.604 296.824 553.122 298.076 554.045 299C554.967 299.924 556.218 300.444 557.523 300.446Z" fill="white"/>
<path d="M592.63 279.503H625.272C626.579 279.503 627.832 278.984 628.756 278.06C629.68 277.136 630.2 275.883 630.2 274.576C630.2 273.269 629.68 272.015 628.756 271.091C627.832 270.167 626.579 269.648 625.272 269.648H592.63C591.323 269.648 590.07 270.167 589.145 271.091C588.221 272.015 587.702 273.269 587.702 274.576C587.702 275.883 588.221 277.136 589.145 278.06C590.07 278.984 591.323 279.503 592.63 279.503Z" fill="white"/>
<path d="M492.873 349.724H596.344C597.651 349.724 598.904 349.204 599.828 348.28C600.752 347.356 601.272 346.103 601.272 344.796C601.272 343.489 600.752 342.236 599.828 341.311C598.904 340.387 597.651 339.868 596.344 339.868H492.873C491.566 339.868 490.313 340.387 489.389 341.311C488.465 342.236 487.946 343.489 487.946 344.796C487.946 346.103 488.465 347.356 489.389 348.28C490.313 349.204 491.566 349.724 492.873 349.724Z" fill="white"/>
<path d="M492.873 372.514H596.344C596.992 372.516 597.634 372.389 598.233 372.142C598.831 371.895 599.376 371.532 599.834 371.074C600.292 370.616 600.656 370.073 600.904 369.474C601.152 368.876 601.28 368.235 601.28 367.587C601.28 366.939 601.152 366.297 600.904 365.699C600.656 365.101 600.292 364.557 599.834 364.099C599.376 363.642 598.831 363.279 598.233 363.032C597.634 362.784 596.992 362.658 596.344 362.659H492.873C492.225 362.658 491.583 362.784 490.985 363.032C490.386 363.279 489.842 363.642 489.383 364.099C488.925 364.557 488.561 365.101 488.313 365.699C488.065 366.297 487.937 366.939 487.937 367.587C487.937 368.235 488.065 368.876 488.313 369.474C488.561 370.073 488.925 370.616 489.383 371.074C489.842 371.532 490.386 371.895 490.985 372.142C491.583 372.389 492.225 372.516 492.873 372.514Z" fill="white"/>
</g>
<defs>
<clipPath id="clip0_7_807">
<rect width="529" height="431" fill="white" transform="matrix(-1 0 0 1 720 236)"/>
</clipPath>
</defs>
</svg>
