<svg width="542" height="542" viewBox="0 0 542 542" fill="none" xmlns="http://www.w3.org/2000/svg">
<path d="M358.804 155.012C378.316 183.196 383.194 216.8 400.538 256.908C417.882 296.474 447.15 343.086 441.73 385.362C436.31 427.638 396.202 466.12 351.758 473.708C307.856 481.296 259.618 457.99 211.38 439.02C163.142 419.508 114.904 404.332 84.01 369.644C52.574 335.498 39.024 281.298 58.536 244.442C78.048 207.586 131.164 187.532 172.356 163.142C213.006 139.294 242.274 110.568 273.71 107.316C305.146 104.606 338.75 126.828 358.804 155.012Z" fill="white"/>
<g clip-path="url(#clip0_7_745)">
<path d="M288.723 176.495C293.965 176.495 298.214 172.252 298.214 167.019C298.214 161.786 293.965 157.543 288.723 157.543C283.48 157.543 279.231 161.786 279.231 167.019C279.231 172.252 283.48 176.495 288.723 176.495Z" fill="#FFBE00"/>
<path d="M287.782 170.634C287.568 170.634 287.361 170.565 287.19 170.437L287.179 170.429L284.948 168.726C284.845 168.647 284.758 168.548 284.693 168.436C284.628 168.323 284.586 168.199 284.569 168.07C284.552 167.941 284.56 167.81 284.594 167.685C284.628 167.559 284.686 167.441 284.765 167.338C284.844 167.235 284.943 167.149 285.056 167.084C285.168 167.019 285.293 166.976 285.422 166.959C285.551 166.942 285.682 166.951 285.808 166.984C285.933 167.018 286.051 167.076 286.155 167.155L287.6 168.261L291.014 163.814C291.093 163.711 291.192 163.625 291.304 163.56C291.417 163.495 291.541 163.453 291.67 163.436C291.799 163.419 291.93 163.427 292.056 163.461C292.182 163.494 292.3 163.552 292.403 163.631L292.403 163.631L292.382 163.661L292.404 163.631C292.612 163.791 292.748 164.027 292.783 164.287C292.817 164.547 292.747 164.81 292.587 165.019L288.571 170.247C288.478 170.367 288.359 170.465 288.222 170.531C288.085 170.598 287.935 170.633 287.783 170.633L287.782 170.634Z" fill="white"/>
<path d="M288.723 240.553C293.965 240.553 298.214 236.31 298.214 231.077C298.214 225.844 293.965 221.602 288.723 221.602C283.48 221.602 279.231 225.844 279.231 231.077C279.231 236.31 283.48 240.553 288.723 240.553Z" fill="#FFBE00"/>
<path d="M287.782 234.692C287.568 234.692 287.361 234.623 287.19 234.495L287.179 234.487L284.948 232.784C284.845 232.705 284.758 232.606 284.693 232.494C284.628 232.381 284.586 232.257 284.569 232.128C284.552 231.999 284.56 231.868 284.594 231.743C284.628 231.617 284.686 231.5 284.765 231.396C284.844 231.293 284.943 231.207 285.056 231.142C285.168 231.077 285.293 231.034 285.422 231.017C285.551 231 285.682 231.009 285.808 231.042C285.933 231.076 286.051 231.134 286.155 231.213L287.6 232.319L291.014 227.872C291.093 227.769 291.192 227.683 291.304 227.618C291.417 227.553 291.541 227.511 291.67 227.494C291.799 227.477 291.93 227.485 292.056 227.519C292.182 227.552 292.3 227.61 292.403 227.689L292.403 227.689L292.382 227.719L292.404 227.689C292.612 227.849 292.748 228.085 292.783 228.345C292.817 228.605 292.747 228.868 292.587 229.077L288.571 234.305C288.478 234.425 288.359 234.523 288.222 234.59C288.085 234.656 287.935 234.691 287.783 234.691L287.782 234.692Z" fill="white"/>
<path d="M312.559 330.647C312.528 329.861 312.67 329.079 312.975 328.354C313.28 327.629 313.741 326.98 314.324 326.452C314.908 325.924 315.6 325.53 316.353 325.298C317.105 325.066 317.899 325.002 318.68 325.109L327.373 308.083L332.285 316.719L323.276 331.563C323.008 332.86 322.273 334.013 321.211 334.804C320.148 335.596 318.831 335.97 317.51 335.857C316.189 335.745 314.955 335.152 314.043 334.191C313.13 333.231 312.603 331.97 312.559 330.647L312.559 330.647Z" fill="#FFB7B7"/>
<path d="M353.087 437.862L346.265 437.861L343.019 411.592L353.088 411.593L353.087 437.862Z" fill="#FFB7B7"/>
<path d="M354.826 444.464L332.829 444.463V444.185C332.83 441.918 333.732 439.744 335.337 438.141C336.943 436.538 339.121 435.638 341.391 435.638H341.392L354.827 435.638L354.826 444.464Z" fill="#2F2E41"/>
<path d="M390.069 437.862L383.247 437.861L380.001 411.592L390.07 411.593L390.069 437.862Z" fill="#FFB7B7"/>
<path d="M391.809 444.464L369.812 444.463V444.185C369.812 441.918 370.714 439.744 372.32 438.141C373.925 436.538 376.103 435.638 378.374 435.638H378.374L391.809 435.638L391.809 444.464Z" fill="#2F2E41"/>
<path d="M323.038 315.828L320.059 320.784C320.059 320.784 325.023 320.784 326.016 328.216L329.987 323.261L323.038 315.828Z" fill="#E5E5E5"/>
<path d="M375.155 305.422C375.155 305.422 383.097 326.234 384.586 339.118C386.075 352.002 388.557 386.193 388.557 386.193L393.52 430.295L379.622 432.277L373.666 387.679L360.264 343.578L357.286 387.679L354.805 427.817L341.899 428.312L340.906 386.688L335.447 333.667L338.425 308.395L375.155 305.422Z" fill="#2F2E41"/>
<path d="M352.819 242.547C359.672 242.547 365.228 237 365.228 230.159C365.228 223.317 359.672 217.771 352.819 217.771C345.966 217.771 340.41 223.317 340.41 230.159C340.41 237 345.966 242.547 352.819 242.547Z" fill="#FFB7B7"/>
<path d="M365.476 242.243L370.44 245.712L376.892 310.625L336.688 311.616L342.148 266.524L347.111 253.64L350.694 248.911L365.476 242.243Z" fill="#E5E5E5"/>
<path d="M366.469 288.822L367.988 243.998C367.988 243.998 370.936 244.225 371.929 245.712C372.922 247.198 389.302 250.172 389.302 250.172L386.323 296.255C386.323 296.255 398.732 332.924 394.265 334.906C389.798 336.888 381.856 336.393 381.856 336.393L366.469 288.822Z" fill="#2F2E41"/>
<path d="M342.396 283.124L347.661 252.914L335.943 260.825L338.921 282.628L336.439 297.494C336.439 297.494 327.008 338.623 329.987 340.109C332.965 341.596 336.439 340.109 336.439 340.109L342.396 298.485V283.124Z" fill="#2F2E41"/>
<path d="M339.417 259.834L335.943 260.825L334.454 280.646L331.972 297.99L320.059 319.297C320.059 319.297 326.016 315.333 328.498 326.73L341.617 303.927L339.417 259.834Z" fill="#2F2E41"/>
<path d="M363.207 218.355L365.547 217.42C365.547 217.42 360.655 212.043 353.847 212.51L355.762 210.406C355.762 210.406 351.082 208.535 346.827 213.445C344.591 216.026 342.003 219.06 340.39 222.478H337.884L338.93 224.777L335.269 227.076L339.027 226.663C338.803 227.922 338.768 229.207 338.925 230.477C339.086 231.746 339.735 232.903 340.734 233.704C340.734 233.704 343.636 227.708 343.636 226.772V229.11C343.636 229.11 345.976 227.006 345.976 225.603L347.253 227.24L347.891 224.668L355.762 227.24L354.485 225.136L359.378 225.837L357.464 223.265L365.039 233.885C365.039 233.885 369.376 221.862 363.207 218.355Z" fill="#2F2E41"/>
<path d="M366.416 326.583C366.539 325.807 366.83 325.066 367.27 324.414C367.711 323.762 368.288 323.215 368.964 322.81C369.639 322.405 370.394 322.153 371.178 322.071C371.961 321.99 372.753 322.08 373.497 322.337L385.335 307.319L388.475 316.743L376.751 329.559C376.236 330.779 375.291 331.768 374.095 332.338C372.898 332.908 371.534 333.021 370.26 332.654C368.986 332.287 367.891 331.467 367.182 330.348C366.474 329.229 366.201 327.889 366.416 326.583V326.583Z" fill="#FFB7B7"/>
<path d="M386.572 321.279L382.104 326.73L376.148 316.324L378.629 311.865L386.572 321.279Z" fill="#E5E5E5"/>
<path d="M385.579 251.906L389.55 249.924C389.55 249.924 392.528 253.888 393.024 257.357C393.52 260.825 396.002 265.285 396.002 267.763C396.002 270.24 402.951 293.53 402.951 293.53L387.068 325.739C387.068 325.739 383.593 313.846 376.148 312.855L388.557 295.512L381.608 283.124L385.579 251.906Z" fill="#2F2E41"/>
<path d="M252.973 252.096H70V210.058H252.973V252.096Z" fill="white"/>
<path d="M96.4071 223.958C95.9348 223.959 95.4821 224.147 95.1484 224.48C94.8147 224.814 94.6273 225.266 94.6273 225.738C94.6273 226.209 94.8147 226.662 95.1484 226.995C95.4821 227.329 95.9348 227.517 96.4071 227.518H226.573C227.046 227.517 227.498 227.329 227.832 226.995C228.166 226.662 228.353 226.209 228.353 225.738C228.353 225.266 228.166 224.814 227.832 224.48C227.498 224.147 227.046 223.959 226.573 223.958H96.4071Z" fill="#FFBE00"/>
<path d="M96.4072 234.637C96.1731 234.636 95.9411 234.682 95.7246 234.771C95.5082 234.86 95.3113 234.99 95.1454 235.155C94.9795 235.32 94.8478 235.516 94.7578 235.732C94.6677 235.948 94.6211 236.179 94.6206 236.413C94.6201 236.647 94.6657 236.878 94.7549 237.094C94.844 237.31 94.9749 237.507 95.1401 237.672C95.3053 237.838 95.5016 237.97 95.7177 238.059C95.9338 238.149 96.1655 238.196 96.3997 238.196H178.692C178.926 238.197 179.159 238.151 179.375 238.062C179.592 237.972 179.789 237.841 179.955 237.676C180.121 237.511 180.252 237.314 180.342 237.098C180.432 236.882 180.478 236.651 180.478 236.417C180.478 236.183 180.432 235.951 180.342 235.735C180.252 235.519 180.121 235.322 179.955 235.157C179.789 234.992 179.592 234.861 179.375 234.771C179.159 234.682 178.926 234.636 178.692 234.637H96.4072Z" fill="#FFBE00"/>
<path d="M252.973 252.096H70V210.058H252.973V252.096ZM73.0078 249.094H249.965V213.061H73.0078V249.094Z" fill="#3F3D56"/>
<path d="M252.973 316.154H70V274.116H252.973V316.154Z" fill="white"/>
<path d="M96.4071 288.016C95.9348 288.017 95.4821 288.205 95.1484 288.538C94.8147 288.872 94.6273 289.324 94.6273 289.796C94.6273 290.267 94.8147 290.72 95.1484 291.053C95.4821 291.387 95.9348 291.575 96.4071 291.576H226.573C227.046 291.575 227.498 291.387 227.832 291.053C228.166 290.72 228.353 290.267 228.353 289.796C228.353 289.324 228.166 288.872 227.832 288.538C227.498 288.205 227.046 288.017 226.573 288.016H96.4071Z" fill="#3F3D56"/>
<path d="M96.4072 298.695C96.1731 298.695 95.9411 298.74 95.7246 298.829C95.5082 298.918 95.3113 299.049 95.1454 299.214C94.9795 299.379 94.8478 299.575 94.7578 299.79C94.6677 300.006 94.6211 300.237 94.6206 300.471C94.6201 300.705 94.6657 300.936 94.7549 301.153C94.844 301.369 94.9749 301.565 95.1401 301.731C95.3053 301.896 95.5016 302.028 95.7177 302.118C95.9338 302.208 96.1655 302.254 96.3997 302.255H178.692C178.926 302.255 179.159 302.209 179.375 302.12C179.592 302.031 179.789 301.9 179.955 301.734C180.121 301.569 180.252 301.373 180.342 301.157C180.432 300.941 180.478 300.709 180.478 300.475C180.478 300.241 180.432 300.009 180.342 299.793C180.252 299.577 180.121 299.381 179.955 299.215C179.789 299.05 179.592 298.919 179.375 298.83C179.159 298.74 178.926 298.695 178.692 298.695H96.4072Z" fill="#3F3D56"/>
<path d="M252.973 316.154H70V274.116H252.973V316.154ZM73.0078 313.152H249.965V277.119H73.0078V313.152Z" fill="#3F3D56"/>
<path d="M254.477 188.038H71.5039V146H254.477V188.038Z" fill="white"/>
<path d="M97.911 159.9C97.4387 159.901 96.986 160.089 96.6523 160.422C96.3186 160.756 96.1312 161.208 96.1312 161.68C96.1312 162.151 96.3186 162.603 96.6523 162.937C96.986 163.271 97.4387 163.459 97.911 163.46H228.077C228.55 163.459 229.002 163.271 229.336 162.937C229.67 162.603 229.857 162.151 229.857 161.68C229.857 161.208 229.67 160.756 229.336 160.422C229.002 160.089 228.55 159.901 228.077 159.9H97.911Z" fill="#FFBE00"/>
<path d="M97.9111 170.579C97.4383 170.578 96.9844 170.764 96.6493 171.097C96.3143 171.43 96.1255 171.883 96.1245 172.355C96.1235 172.827 96.3104 173.28 96.644 173.614C96.9777 173.949 97.4307 174.137 97.9036 174.138H180.196C180.43 174.139 180.663 174.093 180.879 174.004C181.096 173.914 181.293 173.783 181.459 173.618C181.624 173.453 181.756 173.256 181.846 173.04C181.936 172.824 181.982 172.592 181.982 172.358C181.982 172.124 181.936 171.893 181.846 171.677C181.756 171.461 181.624 171.264 181.459 171.099C181.293 170.934 181.096 170.803 180.879 170.713C180.663 170.624 180.43 170.578 180.196 170.579H97.9111Z" fill="#FFBE00"/>
<path d="M254.477 188.038H71.5039V146H254.477V188.038ZM74.5117 185.035H251.469V149.003H74.5117V185.035Z" fill="#3F3D56"/>
<path d="M312.785 329.556C318.027 329.556 322.276 325.314 322.276 320.081C322.276 314.848 318.027 310.605 312.785 310.605C307.543 310.605 303.293 314.848 303.293 320.081C303.293 325.314 307.543 329.556 312.785 329.556Z" fill="#FFBE00"/>
<path d="M311.844 323.695C311.631 323.696 311.423 323.627 311.252 323.499L311.241 323.491L309.011 321.787C308.907 321.708 308.82 321.61 308.755 321.497C308.69 321.385 308.648 321.261 308.63 321.132C308.613 321.003 308.622 320.872 308.655 320.746C308.689 320.621 308.747 320.503 308.826 320.4C308.906 320.296 309.004 320.21 309.117 320.145C309.23 320.08 309.355 320.037 309.484 320.021C309.613 320.004 309.744 320.012 309.87 320.046C309.996 320.079 310.114 320.138 310.217 320.217L311.662 321.323L315.076 316.876C315.155 316.773 315.254 316.686 315.366 316.621C315.479 316.557 315.604 316.514 315.733 316.497C315.862 316.48 315.993 316.489 316.118 316.522C316.244 316.556 316.362 316.614 316.465 316.693L316.465 316.693L316.444 316.723L316.466 316.693C316.674 316.853 316.811 317.089 316.845 317.349C316.879 317.609 316.809 317.872 316.649 318.08L312.633 323.308C312.54 323.429 312.421 323.526 312.284 323.593C312.148 323.66 311.997 323.695 311.845 323.694L311.844 323.695Z" fill="white"/>
</g>
<defs>
<clipPath id="clip0_7_745">
<rect width="402" height="299" fill="white" transform="translate(70 146)"/>
</clipPath>
</defs>
</svg>
