<svg width="190" height="338" viewBox="0 0 190 338" fill="none" xmlns="http://www.w3.org/2000/svg">
<path d="M82.9906 328.245L76.0872 328.244L72.8022 301.542L82.992 301.543L82.9906 328.245Z" fill="#FFB6B6"/>
<path d="M83.2342 335.467L62.0032 335.466V335.197C62.0033 333 62.874 330.892 64.4237 329.338C65.9734 327.784 68.0752 326.911 70.2669 326.911H70.2674L74.1455 323.961L81.3812 326.912L83.2345 326.912L83.2342 335.467Z" fill="#2F2E41"/>
<path d="M154.457 308.742L149.002 312.986L130.079 293.91L138.129 287.646L154.457 308.742Z" fill="#FFB6B6"/>
<path d="M159.065 314.297L142.292 327.349L142.127 327.137C140.784 325.401 140.183 323.2 140.457 321.02C140.731 318.84 141.858 316.858 143.589 315.51L143.589 315.51L144.849 310.795L152.369 308.678L153.833 307.538L159.065 314.297Z" fill="#2F2E41"/>
<path d="M124.593 179.546C124.593 179.546 124.121 186.775 123.527 197.11C123.43 198.805 124.004 200.647 123.902 202.49C123.834 203.714 123.089 204.903 123.02 206.179C122.947 207.525 123.975 208.716 123.902 210.109C123.83 211.469 122.658 213.029 122.587 214.421C121.826 229.404 119.067 247.341 121.83 252.355C123.191 254.826 143.932 289.061 143.932 289.061C143.932 289.061 134.262 303.605 131.499 298.757C127.85 292.354 99.7276 262.397 99.7276 256.677C99.7276 250.963 93.2214 208.142 93.2214 208.142L88.6847 233.483L86.6045 238.504L87.2581 241.451L85.9138 245.43L85.8412 249.366L84.5324 256.677C84.5324 256.677 88.4694 313.633 86.2523 315.219C84.0283 316.812 73.2603 319.673 71.9895 316.812C70.7255 313.952 65.8838 257.369 65.8838 257.369C65.8838 257.369 64.5577 231.44 63.121 207.338C63.0382 205.939 62.0574 204.25 61.9814 202.871C61.8916 201.272 62.5132 199.194 62.4303 197.642C62.3406 195.863 61.5532 194.609 61.4772 192.905C60.8901 179.74 60.8003 169.365 61.8501 167.786C65.0204 163.021 67.873 159.212 67.873 159.212C67.873 159.212 113.182 148.089 124.593 162.384L124.593 179.546Z" fill="#2F2E41"/>
<path d="M83.8417 43.2002L94.7666 42.5876L103 47.0941L125.895 177.1C125.895 177.1 102.49 187.947 87.9858 183.791C73.4813 179.636 58.2068 179.87 58.2068 179.87L69.3372 55.6664L78.3162 47.3556L83.8417 43.2002Z" fill="#E6E6E6"/>
<path d="M102.068 45.9564L118.978 52.8809C121.574 53.0078 124.052 54.0124 126.006 55.7312C127.961 57.45 129.277 59.7816 129.741 62.3465L128.619 95.8338L122.52 111.764L126.87 148.055L124.593 152.626L126.56 157.291C123.672 161.993 124.26 168.154 125.974 174.788H123.902L119.758 174.095C119.758 174.095 110.634 177.271 108.765 165.864C103.872 136.004 101.109 149.163 101.109 149.163L98.7004 56.5165L102.068 45.9564Z" fill="#3F3D56"/>
<path d="M79.0068 45.9705L63.21 62.5769C60.6135 62.7037 58.1363 63.7084 56.1818 65.4272C54.2273 67.146 52.9108 69.4776 52.4465 72.0424L58.9768 123.538L55.912 143.297L57.5954 147.778L56.3763 152.842L58.2861 157.474L56.9047 163.707L58.9768 172.71L69.3371 169.94L69.2578 162.556L72.0206 62.1335L79.0068 45.9705Z" fill="#3F3D56"/>
<path d="M26.3259 131.334L4.80752 146.991C3.98318 147.034 3.18463 147.294 2.49228 147.744C1.79993 148.195 1.23821 148.821 0.863646 149.558C0.489086 150.296 0.314915 151.119 0.358653 151.946C0.402391 152.772 0.662492 153.573 1.11279 154.266C1.56309 154.96 2.18769 155.522 2.92371 155.897C3.65973 156.272 4.48124 156.446 5.30547 156.401C6.12971 156.356 6.92759 156.094 7.61886 155.642C8.31012 155.189 8.87036 154.562 9.24315 153.824L38.5039 138.161L26.3259 131.334Z" fill="#FFB6B6"/>
<path d="M56.2137 65.3623C52.124 67.2537 42.0209 115.678 39.0557 116.705C36.0905 117.732 37.2226 117.577 36.8067 118.434C36.3907 119.292 36.29 123.13 33.4435 123.58C30.597 124.03 15.5574 137.779 15.5574 137.779L19.3697 150.522C19.3697 150.522 48.3107 133.942 56.2906 124.762C64.2704 115.581 68.5669 68.3666 68.5669 68.3666L69.3831 63.6562C69.3831 63.6562 60.3035 63.4708 56.2137 65.3623Z" fill="#3F3D56"/>
<path d="M121.113 124.94L101.936 143.405C101.125 143.561 100.37 143.928 99.7454 144.469C99.1212 145.011 98.6502 145.708 98.3799 146.49C98.1096 147.272 98.0495 148.111 98.2058 148.924C98.362 149.737 98.729 150.494 99.2698 151.119C99.8106 151.745 100.506 152.216 101.286 152.486C102.067 152.756 102.904 152.815 103.714 152.658C104.525 152.5 105.279 152.131 105.902 151.588C106.525 151.045 106.995 150.347 107.263 149.564L134.108 130.03L121.113 124.94Z" fill="#FFB6B6"/>
<path d="M123.902 69.5177C120.109 71.953 134.521 107.277 131.724 108.701C128.927 110.125 130.028 109.817 129.733 110.723C129.438 111.629 129.862 115.445 127.104 116.282C124.346 117.119 111.326 132.804 111.326 132.804L116.843 144.903C116.843 144.903 143.247 124.505 149.897 114.314C156.548 104.124 152.22 100.683 152.22 100.683C143.969 83.1111 136.252 54.4538 124.592 56.3589C124.592 56.3589 127.694 67.0824 123.902 69.5177Z" fill="#3F3D56"/>
<path d="M86.1847 40.4582C96.4103 40.4582 104.7 32.1462 104.7 21.8928C104.7 11.6395 96.4103 3.32751 86.1847 3.32751C75.9591 3.32751 67.6697 11.6395 67.6697 21.8928C67.6697 32.1462 75.9591 40.4582 86.1847 40.4582Z" fill="#FFB6B6"/>
<path d="M104.934 33.8554C104.934 33.8554 100.856 34.9766 98.4828 35.6008C98.6055 33.8301 99.3703 32.1725 99.7586 30.4404C100.147 28.7082 100.063 26.671 98.7789 25.448C97.4951 24.2249 94.8212 24.7015 94.6143 26.4613C93.5283 24.1325 92.4399 21.7995 91.3493 19.4623C88.2397 25.8804 81.8822 20.411 74.9503 22.0327C71.4141 22.868 66.982 22.5092 65.1138 19.3848C66.1637 18.5012 67.0482 17.4371 67.7259 16.2425C66.6484 16.5595 65.5273 16.7019 64.405 16.6643C64.4307 15.5467 64.7237 14.4517 65.2593 13.4712C65.795 12.4908 66.5576 11.6538 67.4831 11.0305C68.4801 10.3768 66.0124 8.0512 66.8825 7.23254C68.6671 5.56169 69.8647 6.6963 70.919 4.49389C71.5988 3.13198 72.6462 1.98876 73.9421 1.19435C75.2379 0.399944 76.7302 -0.0137557 78.249 0.000348987C81.279 0.0715033 86.7083 0.042194 87.8839 2.84127C91.6305 0.381967 96.8459 1.0768 100.508 3.65666C103.552 5.7927 107.016 12.2492 107.781 15.894C108.546 19.5388 106.861 30.6789 104.934 33.8554Z" fill="#2F2E41"/>
<path d="M188.52 336.825L0.824791 337.038C0.716592 337.038 0.609388 337.017 0.509335 336.976C0.409281 336.934 0.318345 336.874 0.241725 336.797C0.165106 336.72 0.104292 336.629 0.0628131 336.529C0.0213345 336.429 0 336.322 0 336.213C0 336.105 0.0213345 335.997 0.0628131 335.897C0.104292 335.797 0.165106 335.706 0.241725 335.629C0.318345 335.553 0.409281 335.492 0.509335 335.451C0.609388 335.409 0.716592 335.388 0.824791 335.388L188.52 335.176C188.738 335.176 188.948 335.263 189.102 335.417C189.256 335.572 189.343 335.782 189.343 336C189.343 336.219 189.256 336.429 189.102 336.583C188.948 336.738 188.738 336.825 188.52 336.825Z" fill="#CACACA"/>
<path d="M112.906 45.9724C112.475 45.2955 111.799 44.8132 111.02 44.628C110.24 44.4428 109.42 44.5691 108.732 44.9803C109.747 43.5655 108.982 41.1478 107.391 40.1705C105.588 39.0633 103.31 39.2467 101.208 39.4669L83.9701 41.2722C81.9827 41.4803 79.9401 41.7047 78.1709 42.6362C76.4016 43.5678 74.9462 45.3858 75.0485 47.387C73.6973 46.8899 72.2545 46.6937 70.8202 46.812C69.4032 47.0359 68.0059 48.0743 67.8548 49.5046C67.6121 51.7999 70.3314 53.1254 72.546 53.7546C76.6581 54.9229 80.7702 56.0912 84.8823 57.2595L83.6144 57.5312C91.7066 58.2405 99.8526 57.0588 107.413 54.0791C109.145 53.3942 110.899 52.574 112.112 51.1572C113.325 49.7405 113.854 47.5793 112.906 45.9724Z" fill="#E6E6E6"/>
</svg>
