<svg width="375" height="50" viewBox="0 0 375 50" fill="none" xmlns="http://www.w3.org/2000/svg">
<path d="M37.297 50C36.2168 49.9955 35.1661 49.6336 34.2968 48.9667L27.0667 43.5031C26.4668 43.0474 25.7432 42.8019 25.0004 42.8019C24.2576 42.8019 23.534 43.0474 22.9341 43.5031L15.7039 48.9667C14.8319 49.6256 13.7818 49.9806 12.704 49.9807C11.6262 49.9807 10.576 49.6259 9.704 48.967C8.83199 48.3081 8.18286 47.379 7.8497 46.3128C7.51654 45.2467 7.51645 44.0982 7.84938 43.032L10.6111 34.1916C10.8421 33.4573 10.8428 32.6657 10.6133 31.9309C10.3837 31.1961 9.93567 30.5562 9.3338 30.1034L2.10361 24.639C1.23169 23.98 0.582719 23.0508 0.249707 21.9846C-0.0833046 20.9184 -0.0832209 19.7699 0.249866 18.7037C0.582952 17.6375 1.23196 16.7084 2.10393 16.0494C2.97589 15.3905 4.02605 15.0356 5.10387 15.0356L14.0406 15.0356C14.7834 15.037 15.5074 14.7931 16.1083 14.339C16.7093 13.885 17.1561 13.2442 17.3844 12.509L20.1458 3.66874C20.4788 2.6024 21.1278 1.67304 21.9998 1.01398C22.8718 0.354918 23.9221 2.43723e-07 25 2.54705e-07C26.0779 2.65687e-07 27.1282 0.354918 28.0002 1.01398C28.8723 1.67304 29.5212 2.6024 29.8542 3.66874L32.616 12.509C32.8442 13.2442 33.291 13.885 33.8919 14.339C34.4927 14.7931 35.2167 15.037 35.9594 15.0356L44.8962 15.0356C45.974 15.0356 47.0241 15.3905 47.8961 16.0494C48.7681 16.7084 49.4171 17.6375 49.7502 18.7037C50.0833 19.7699 50.0833 20.9184 49.7502 21.9846C49.4172 23.0508 48.7683 23.98 47.8963 24.639L40.6662 30.1026C40.0645 30.5557 39.6167 31.1959 39.3872 31.9307C39.1577 32.6656 39.1584 33.4572 39.3893 34.1916L42.151 43.032C42.4963 44.0971 42.5024 45.2496 42.1684 46.3186C41.8344 47.3876 41.1782 48.3161 40.2969 48.9667C39.4277 49.6336 38.377 49.9955 37.297 50V50Z" fill="#FFBE00"/>
<path d="M232.297 50C231.217 49.9955 230.166 49.6336 229.297 48.9667L222.067 43.5031C221.467 43.0474 220.743 42.8019 220 42.8019C219.258 42.8019 218.534 43.0474 217.934 43.5031L210.704 48.9667C209.832 49.6256 208.782 49.9806 207.704 49.9807C206.626 49.9807 205.576 49.6259 204.704 48.967C203.832 48.3081 203.183 47.379 202.85 46.3128C202.517 45.2467 202.516 44.0982 202.849 43.032L205.611 34.1916C205.842 33.4573 205.843 32.6657 205.613 31.9309C205.384 31.1961 204.936 30.5562 204.334 30.1034L197.104 24.639C196.232 23.98 195.583 23.0508 195.25 21.9846C194.917 20.9184 194.917 19.7699 195.25 18.7037C195.583 17.6375 196.232 16.7084 197.104 16.0494C197.976 15.3905 199.026 15.0356 200.104 15.0356L209.041 15.0356C209.783 15.037 210.507 14.7931 211.108 14.339C211.709 13.885 212.156 13.2442 212.384 12.509L215.146 3.66874C215.479 2.6024 216.128 1.67304 217 1.01398C217.872 0.354918 218.922 2.43723e-07 220 2.54705e-07C221.078 2.65687e-07 222.128 0.354918 223 1.01398C223.872 1.67304 224.521 2.6024 224.854 3.66874L227.616 12.509C227.844 13.2442 228.291 13.885 228.892 14.339C229.493 14.7931 230.217 15.037 230.959 15.0356L239.896 15.0356C240.974 15.0356 242.024 15.3905 242.896 16.0494C243.768 16.7084 244.417 17.6375 244.75 18.7037C245.083 19.7699 245.083 20.9184 244.75 21.9846C244.417 23.0508 243.768 23.98 242.896 24.639L235.666 30.1026C235.065 30.5557 234.617 31.1959 234.387 31.9307C234.158 32.6656 234.158 33.4572 234.389 34.1916L237.151 43.032C237.496 44.0971 237.502 45.2496 237.168 46.3186C236.834 47.3876 236.178 48.3161 235.297 48.9667C234.428 49.6336 233.377 49.9955 232.297 50V50Z" fill="#6D6D6D"/>
<path d="M167.297 50C166.217 49.9955 165.166 49.6336 164.297 48.9667L157.067 43.5031C156.467 43.0474 155.743 42.8019 155 42.8019C154.258 42.8019 153.534 43.0474 152.934 43.5031L145.704 48.9667C144.832 49.6256 143.782 49.9806 142.704 49.9807C141.626 49.9807 140.576 49.6259 139.704 48.967C138.832 48.3081 138.183 47.379 137.85 46.3128C137.517 45.2467 137.516 44.0982 137.849 43.032L140.611 34.1916C140.842 33.4573 140.843 32.6657 140.613 31.9309C140.384 31.1961 139.936 30.5562 139.334 30.1034L132.104 24.639C131.232 23.98 130.583 23.0508 130.25 21.9846C129.917 20.9184 129.917 19.7699 130.25 18.7037C130.583 17.6375 131.232 16.7084 132.104 16.0494C132.976 15.3905 134.026 15.0356 135.104 15.0356L144.041 15.0356C144.783 15.037 145.507 14.7931 146.108 14.339C146.709 13.885 147.156 13.2442 147.384 12.509L150.146 3.66874C150.479 2.6024 151.128 1.67304 152 1.01398C152.872 0.354918 153.922 2.43723e-07 155 2.54705e-07C156.078 2.65687e-07 157.128 0.354918 158 1.01398C158.872 1.67304 159.521 2.6024 159.854 3.66874L162.616 12.509C162.844 13.2442 163.291 13.885 163.892 14.339C164.493 14.7931 165.217 15.037 165.959 15.0356L174.896 15.0356C175.974 15.0356 177.024 15.3905 177.896 16.0494C178.768 16.7084 179.417 17.6375 179.75 18.7037C180.083 19.7699 180.083 20.9184 179.75 21.9846C179.417 23.0508 178.768 23.98 177.896 24.639L170.666 30.1026C170.065 30.5557 169.617 31.1959 169.387 31.9307C169.158 32.6656 169.158 33.4572 169.389 34.1916L172.151 43.032C172.496 44.0971 172.502 45.2496 172.168 46.3186C171.834 47.3876 171.178 48.3161 170.297 48.9667C169.428 49.6336 168.377 49.9955 167.297 50V50Z" fill="#FFBE00"/>
<path d="M102.297 50C101.217 49.9955 100.166 49.6336 99.2968 48.9667L92.0667 43.5031C91.4668 43.0474 90.7432 42.8019 90.0004 42.8019C89.2576 42.8019 88.534 43.0474 87.9341 43.5031L80.7039 48.9667C79.8319 49.6256 78.7818 49.9806 77.704 49.9807C76.6262 49.9807 75.576 49.6259 74.704 48.967C73.832 48.3081 73.1829 47.379 72.8497 46.3128C72.5165 45.2467 72.5165 44.0982 72.8494 43.032L75.6111 34.1916C75.8421 33.4573 75.8428 32.6657 75.6133 31.9309C75.3837 31.1961 74.9357 30.5562 74.3338 30.1034L67.1036 24.639C66.2317 23.98 65.5827 23.0508 65.2497 21.9846C64.9167 20.9184 64.9168 19.7699 65.2499 18.7037C65.583 17.6375 66.232 16.7084 67.1039 16.0494C67.9759 15.3905 69.0261 15.0356 70.1039 15.0356L79.0406 15.0356C79.7834 15.037 80.5074 14.7931 81.1083 14.339C81.7093 13.885 82.1561 13.2442 82.3844 12.509L85.1458 3.66874C85.4788 2.6024 86.1278 1.67304 86.9998 1.01398C87.8718 0.354918 88.9221 2.43723e-07 90 2.54705e-07C91.0779 2.65687e-07 92.1282 0.354918 93.0002 1.01398C93.8723 1.67304 94.5212 2.6024 94.8542 3.66874L97.616 12.509C97.8442 13.2442 98.291 13.885 98.8919 14.339C99.4927 14.7931 100.217 15.037 100.959 15.0356L109.896 15.0356C110.974 15.0356 112.024 15.3905 112.896 16.0494C113.768 16.7084 114.417 17.6375 114.75 18.7037C115.083 19.7699 115.083 20.9184 114.75 21.9846C114.417 23.0508 113.768 23.98 112.896 24.639L105.666 30.1026C105.065 30.5557 104.617 31.1959 104.387 31.9307C104.158 32.6656 104.158 33.4572 104.389 34.1916L107.151 43.032C107.496 44.0971 107.502 45.2496 107.168 46.3186C106.834 47.3876 106.178 48.3161 105.297 48.9667C104.428 49.6336 103.377 49.9955 102.297 50V50Z" fill="#FFBE00"/>
<path d="M362.297 50C361.217 49.9955 360.166 49.6336 359.297 48.9667L352.067 43.5031C351.467 43.0474 350.743 42.8019 350 42.8019C349.258 42.8019 348.534 43.0474 347.934 43.5031L340.704 48.9667C339.832 49.6256 338.782 49.9806 337.704 49.9807C336.626 49.9807 335.576 49.6259 334.704 48.967C333.832 48.3081 333.183 47.379 332.85 46.3128C332.517 45.2467 332.516 44.0982 332.849 43.032L335.611 34.1916C335.842 33.4573 335.843 32.6657 335.613 31.9309C335.384 31.1961 334.936 30.5562 334.334 30.1034L327.104 24.639C326.232 23.98 325.583 23.0508 325.25 21.9846C324.917 20.9184 324.917 19.7699 325.25 18.7037C325.583 17.6375 326.232 16.7084 327.104 16.0494C327.976 15.3905 329.026 15.0356 330.104 15.0356L339.041 15.0356C339.783 15.037 340.507 14.7931 341.108 14.339C341.709 13.885 342.156 13.2442 342.384 12.509L345.146 3.66874C345.479 2.6024 346.128 1.67304 347 1.01398C347.872 0.354918 348.922 2.43723e-07 350 2.54705e-07C351.078 2.65687e-07 352.128 0.354918 353 1.01398C353.872 1.67304 354.521 2.6024 354.854 3.66874L357.616 12.509C357.844 13.2442 358.291 13.885 358.892 14.339C359.493 14.7931 360.217 15.037 360.959 15.0356L369.896 15.0356C370.974 15.0356 372.024 15.3905 372.896 16.0494C373.768 16.7084 374.417 17.6375 374.75 18.7037C375.083 19.7699 375.083 20.9184 374.75 21.9846C374.417 23.0508 373.768 23.98 372.896 24.639L365.666 30.1026C365.065 30.5557 364.617 31.1959 364.387 31.9307C364.158 32.6656 364.158 33.4572 364.389 34.1916L367.151 43.032C367.496 44.0971 367.502 45.2496 367.168 46.3186C366.834 47.3876 366.178 48.3161 365.297 48.9667C364.428 49.6336 363.377 49.9955 362.297 50V50Z" fill="#6D6D6D"/>
<path d="M297.297 50C296.217 49.9955 295.166 49.6336 294.297 48.9667L287.067 43.5031C286.467 43.0474 285.743 42.8019 285 42.8019C284.258 42.8019 283.534 43.0474 282.934 43.5031L275.704 48.9667C274.832 49.6256 273.782 49.9806 272.704 49.9807C271.626 49.9807 270.576 49.6259 269.704 48.967C268.832 48.3081 268.183 47.379 267.85 46.3128C267.517 45.2467 267.516 44.0982 267.849 43.032L270.611 34.1916C270.842 33.4573 270.843 32.6657 270.613 31.9309C270.384 31.1961 269.936 30.5562 269.334 30.1034L262.104 24.639C261.232 23.98 260.583 23.0508 260.25 21.9846C259.917 20.9184 259.917 19.7699 260.25 18.7037C260.583 17.6375 261.232 16.7084 262.104 16.0494C262.976 15.3905 264.026 15.0356 265.104 15.0356L274.041 15.0356C274.783 15.037 275.507 14.7931 276.108 14.339C276.709 13.885 277.156 13.2442 277.384 12.509L280.146 3.66874C280.479 2.6024 281.128 1.67304 282 1.01398C282.872 0.354918 283.922 2.43723e-07 285 2.54705e-07C286.078 2.65687e-07 287.128 0.354918 288 1.01398C288.872 1.67304 289.521 2.6024 289.854 3.66874L292.616 12.509C292.844 13.2442 293.291 13.885 293.892 14.339C294.493 14.7931 295.217 15.037 295.959 15.0356L304.896 15.0356C305.974 15.0356 307.024 15.3905 307.896 16.0495C308.768 16.7084 309.417 17.6375 309.75 18.7037C310.083 19.7699 310.083 20.9184 309.75 21.9846C309.417 23.0508 308.768 23.98 307.896 24.639L300.666 30.1026C300.065 30.5557 299.617 31.1959 299.387 31.9307C299.158 32.6656 299.158 33.4572 299.389 34.1916L302.151 43.032C302.496 44.0971 302.502 45.2496 302.168 46.3186C301.834 47.3876 301.178 48.3161 300.297 48.9667C299.428 49.6336 298.377 49.9955 297.297 50V50Z" fill="#6D6D6D"/>
</svg>
